<svg xmlns="http://www.w3.org/2000/svg" width="24" height="24" viewBox="0 0 24 24"><path d="M12 0C5.37 0 0 5.37 0 12c0 5.3 3.44 9.8 8.2 11.4.6.1.8-.27.8-.6V20.6c-3.34.72-4.03-1.42-4.03-1.42-.55-1.4-1.34-1.76-1.34-1.76-1.1-.74.1-.73.1-.73 1.2.1 1.83 1.24 1.83 1.24 1.07 1.85 2.8 1.32 3.5 1 .1-.77.4-1.3.75-1.6-2.66-.3-5.46-1.33-5.46-5.93 0-1.3.47-2.38 1.24-3.22-.13-.3-.54-1.52.12-3.17 0 0 1-.33 3.3 1.23a11.5 11.5 0 0 1 3-.4c1.02 0 2.05.14 3 .4C17.3 4.66 18.3 5 18.3 5c.66 1.65.25 2.87.12 3.17.77.84 1.24 1.9 1.24 3.22 0 4.6-2.8 5.63-5.48 5.93.43.37.82 1.1.82 2.22v3.3c0 .3.2.68.8.57C20.57 21.8 24 17.3 24 12c0-6.63-5.37-12-12-12z"/></svg>